<?xml version="1.0" encoding="utf-8"?><svg xmlns="http://www.w3.org/2000/svg" xmlns:xlink="http://www.w3.org/1999/xlink"><symbol viewBox="0 0 26 26" id="cross" xmlns="http://www.w3.org/2000/svg"><path d="M15.023 13 25.277.777a.31.31 0 0 0-.238-.511h-3.117a.636.636 0 0 0-.48.222L12.983 10.57 4.527.488a.624.624 0 0 0-.48-.222H.93a.31.31 0 0 0-.24.511L10.945 13 .691 25.223a.31.31 0 0 0 .239.511h3.117c.183 0 .36-.082.48-.222l8.457-10.082 8.457 10.082c.117.14.293.222.48.222h3.118a.31.31 0 0 0 .238-.511L15.023 13Z"/></symbol><symbol viewBox="0 0 21 20" id="phone" xmlns="http://www.w3.org/2000/svg"><path d="m13.532 14.214 1.722-1.723a1.683 1.683 0 0 1 1.8-.37l2.098.84a1.677 1.677 0 0 1 1.046 1.537v3.846a1.67 1.67 0 0 1-1.753 1.654C3.737 19.083.769 6.622.208 1.854A1.67 1.67 0 0 1 1.876 0H5.59a1.66 1.66 0 0 1 1.537 1.046l.838 2.1a1.662 1.662 0 0 1-.36 1.8L5.881 6.669s.992 6.714 7.65 7.545Z"/></symbol></svg>