<?xml version="1.0" encoding="utf-8"?><svg xmlns="http://www.w3.org/2000/svg" xmlns:xlink="http://www.w3.org/1999/xlink"><symbol viewBox="0 0 21 20" id="phone" xmlns="http://www.w3.org/2000/svg"><path d="m13.532 14.214 1.722-1.723a1.683 1.683 0 0 1 1.8-.37l2.098.84a1.677 1.677 0 0 1 1.046 1.537v3.846a1.67 1.67 0 0 1-1.753 1.654C3.737 19.083.769 6.622.208 1.854A1.67 1.67 0 0 1 1.876 0H5.59a1.66 1.66 0 0 1 1.537 1.046l.838 2.1a1.662 1.662 0 0 1-.36 1.8L5.881 6.669s.992 6.714 7.65 7.545Z"/></symbol></svg>